<svg xmlns="http://www.w3.org/2000/svg" xml:space="preserve" width="512" height="512" id="discover-network">
  <path fill="#F3F2F2" d="M7.9 256C7.9 119 119 7.9 256 7.9S504.1 119 504.1 256 393 504.1 256 504.1 7.9 393 7.9 256z"></path>
  <path fill="#F26E21" d="M304.7 240.6c0 18-14.6 32.6-32.6 32.6s-32.6-14.6-32.6-32.6 14.6-32.6 32.6-32.6 32.6 14.6 32.6 32.6z"></path>
  <path fill="#0B161F" d="M96.3 256.2c-3.8 3.4-8.8 4.9-16.7 4.9h-3.3v-41h3.3c7.9 0 12.7 1.4 16.7 5 4.2 3.7 6.7 9.5 6.7 15.4 0 6.1-2.5 12-6.7 15.7zm-14.2-46.5H64.2v62H82c9.5 0 16.3-2.2 22.3-7.2 7.1-5.9 11.3-14.7 11.3-23.8 0-18.3-13.8-31-33.5-31M121.2 271.7h12.2v-62h-12.2v62M163.2 233.5c-7.3-2.7-9.5-4.5-9.5-7.8 0-3.9 3.8-6.9 9.1-6.9 3.6 0 6.6 1.5 9.8 5l6.4-8.3c-5.2-4.6-11.5-6.9-18.4-6.9-11 0-19.5 7.6-19.5 17.7 0 8.6 3.9 12.9 15.4 17 4.8 1.7 7.2 2.8 8.4 3.5 2.4 1.6 3.7 3.8 3.7 6.4 0 5-4 8.7-9.5 8.7-5.8 0-10.5-2.9-13.3-8.3l-7.9 7.5c5.6 8.2 12.4 11.8 21.6 11.8 12.6 0 21.5-8.4 21.5-20.4.2-9.5-3.9-14-17.8-19M185 240.7c0 18.2 14.4 32.4 33 32.4 5.2 0 9.7-1 15.3-3.6v-14.2c-4.9 4.8-9.2 6.8-14.7 6.8-12.3 0-21-8.8-21-21.4 0-11.9 9-21.3 20.4-21.3 5.8 0 10.2 2 15.3 7v-14.2c-5.3-2.7-9.7-3.8-15-3.8-18.5-.1-33.3 14.3-33.3 32.3M332 251.3l-16.7-41.6H302l26.5 63.6h6.6l27-63.6h-13.2L332 251.3M367.6 271.7h34.6v-10.5h-22.4v-16.8h21.5V234h-21.5v-13.8h22.4v-10.5h-34.6v62M426 238.2h-3.5v-18.8h3.7c7.6 0 11.7 3.2 11.7 9.2 0 6.3-4.1 9.6-11.9 9.6zm24.4-10.2c0-11.6-8-18.3-22.1-18.3h-18.1v62h12.2v-24.9h1.6l16.8 24.9h15l-19.7-26.1c9.3-1.9 14.3-8.1 14.3-17.6"></path>
  <path d="M153.1 329.3v-34.9l23.8 24.9v-22.7h4.9v34.6L158 306.4v22.9h-4.9zM207.6 301.2h-13.1v7.8h12.7v4.6h-12.7v10.9h13.1v4.6h-18v-32.6h18v4.7zM223.1 301.2v28h-4.9v-28h-7.5v-4.6h19.9v4.6h-7.5zM238.5 296.6l8.5 21.8 8.9-23.4 8.5 23.4 9-21.8h5.3l-14.6 34.7-8.4-23.1-8.8 23.2-13.9-34.7h5.5zM279.7 312.8c0-4.6 1.7-8.5 5.1-11.8 3.4-3.3 7.4-4.9 12.1-4.9 4.6 0 8.6 1.7 12 5 3.3 3.3 5 7.3 5 12s-1.7 8.7-5 11.9c-3.4 3.3-7.4 4.9-12.2 4.9-4.2 0-8-1.5-11.4-4.4-3.7-3.3-5.6-7.5-5.6-12.7zm5 0c0 3.6 1.2 6.6 3.6 8.9 2.4 2.3 5.2 3.5 8.4 3.5 3.4 0 6.3-1.2 8.7-3.5 2.4-2.4 3.5-5.3 3.5-8.7 0-3.5-1.2-6.4-3.5-8.7-2.3-2.4-5.2-3.5-8.6-3.5-3.4 0-6.3 1.2-8.6 3.5-2.3 2.2-3.5 5.1-3.5 8.5zM331.1 315.3l10.1 13.9h-6l-9.3-13.4h-.9v13.4h-5v-32.6h5.8c4.3 0 7.4.8 9.3 2.4 2.1 1.8 3.2 4.2 3.2 7.1 0 2.3-.7 4.3-2 6-1.3 1.7-3 2.8-5.2 3.2zm-6.1-3.7h1.6c4.7 0 7-1.8 7-5.3 0-3.3-2.3-5-6.8-5H325v10.3zM351 309.6l12.7-13h6.6l-14.8 14.8 14.8 17.9h-6.6L352 314.7l-1 1v13.5h-4.9v-32.6h4.9v13z"></path>
  <path fill="#F26E21" d="M503.3 274.6c-46.7 59.1-154.9 161.2-347.5 208.3C186.5 496.5 220.3 504 256 504c130.7.1 237.8-101.1 247.3-229.4z"></path>
</svg>
